<svg width="24" height="24" viewBox="0 0 24 24" fill="none" xmlns="http://www.w3.org/2000/svg">
<path d="M17.82 19.2699L4.72999 6.17993C4.32999 5.77993 4.32999 5.12993 4.72999 4.72993C5.12999 4.32993 5.77999 4.32993 6.17999 4.72993L19.27 17.8199C19.67 18.2199 19.67 18.8699 19.27 19.2699C18.87 19.6699 18.22 19.6699 17.82 19.2699Z" fill="rgba(0,0,0,0.7)"/>
<path d="M6.17999 19.2699L19.27 6.17993C19.67 5.77993 19.67 5.12993 19.27 4.72993C18.87 4.32993 18.22 4.32993 17.82 4.72993L4.72999 17.8199C4.32999 18.2199 4.32999 18.8699 4.72999 19.2699C5.12999 19.6699 5.77999 19.6699 6.17999 19.2699Z" fill="rgba(0,0,0,0.7)"/>
</svg>
