<svg width="11" height="12" viewBox="0 0 11 12" fill="none" xmlns="http://www.w3.org/2000/svg">
<path d="M4.43366 3.00052H6.56699C6.56699 2.71762 6.45461 2.44631 6.25457 2.24627C6.05453 2.04623 5.78322 1.93385 5.50033 1.93385C5.21743 1.93385 4.94612 2.04623 4.74608 2.24627C4.54604 2.44631 4.43366 2.71762 4.43366 3.00052ZM3.36699 3.00052C3.36699 2.43473 3.59175 1.8921 3.99183 1.49203C4.39191 1.09195 4.93453 0.867188 5.50033 0.867188C6.06612 0.867188 6.60874 1.09195 7.00882 1.49203C7.4089 1.8921 7.63366 2.43473 7.63366 3.00052H10.3003C10.4418 3.00052 10.5774 3.05671 10.6774 3.15673C10.7775 3.25675 10.8337 3.39241 10.8337 3.53385C10.8337 3.6753 10.7775 3.81096 10.6774 3.91098C10.5774 4.011 10.4418 4.06719 10.3003 4.06719H9.82992L9.35739 9.58185C9.31196 10.1144 9.06831 10.6104 8.67465 10.9719C8.28098 11.3334 7.76597 11.5339 7.23153 11.5339H3.76913C3.23468 11.5339 2.71967 11.3334 2.326 10.9719C1.93234 10.6104 1.68869 10.1144 1.64326 9.58185L1.17073 4.06719H0.700325C0.558877 4.06719 0.423221 4.011 0.323202 3.91098C0.223182 3.81096 0.166992 3.6753 0.166992 3.53385C0.166992 3.39241 0.223182 3.25675 0.323202 3.15673C0.423221 3.05671 0.558877 3.00052 0.700325 3.00052H3.36699ZM7.10033 6.20052C7.10033 6.05907 7.04413 5.92342 6.94412 5.8234C6.8441 5.72338 6.70844 5.66719 6.56699 5.66719C6.42554 5.66719 6.28989 5.72338 6.18987 5.8234C6.08985 5.92342 6.03366 6.05907 6.03366 6.20052V8.33385C6.03366 8.4753 6.08985 8.61096 6.18987 8.71098C6.28989 8.811 6.42554 8.86719 6.56699 8.86719C6.70844 8.86719 6.8441 8.811 6.94412 8.71098C7.04413 8.61096 7.10033 8.4753 7.10033 8.33385V6.20052ZM4.43366 5.66719C4.57511 5.66719 4.71076 5.72338 4.81078 5.8234C4.9108 5.92342 4.96699 6.05907 4.96699 6.20052V8.33385C4.96699 8.4753 4.9108 8.61096 4.81078 8.71098C4.71076 8.811 4.57511 8.86719 4.43366 8.86719C4.29221 8.86719 4.15655 8.811 4.05654 8.71098C3.95652 8.61096 3.90033 8.4753 3.90033 8.33385V6.20052C3.90033 6.05907 3.95652 5.92342 4.05654 5.8234C4.15655 5.72338 4.29221 5.66719 4.43366 5.66719ZM2.70566 9.49119C2.72838 9.75754 2.85028 10.0056 3.04723 10.1864C3.24417 10.3671 3.50181 10.4674 3.76913 10.4672H7.23153C7.49866 10.4671 7.75603 10.3668 7.95275 10.186C8.14947 10.0053 8.27122 9.75735 8.29393 9.49119L8.75899 4.06719H2.24166L2.70673 9.49119H2.70566Z" fill="#E13F3D"/>
</svg>
