<svg width="100" height="101" viewBox="0 0 100 101" fill="none" xmlns="http://www.w3.org/2000/svg">
<path d="M50.0002 92.1667C73.012 92.1667 91.6668 73.5119 91.6668 50.5C91.6668 27.4882 73.012 8.83337 50.0002 8.83337C26.9883 8.83337 8.3335 27.4882 8.3335 50.5C8.3335 73.5119 26.9883 92.1667 50.0002 92.1667Z" fill="#4FBA77"/>
<path d="M70.1667 36.2084C68.5417 34.5834 65.9167 34.5834 64.2917 36.2084L44.5833 55.9167L35.75 47.0834C34.125 45.4584 31.5 45.4584 29.875 47.0834C28.25 48.7084 28.25 51.3334 29.875 52.9584L41.6667 64.75C42.5 65.5834 43.5417 65.9584 44.625 65.9584C45.7083 65.9584 46.75 65.5417 47.5833 64.75L70.25 42.0834C71.7917 40.5 71.7917 37.8334 70.1667 36.2084Z" fill="#E6F5EB"/>
</svg>
